<mxfile host="65bd71144e">
    <diagram id="DV9r1rZQMhXhoC_S3pIL" name="Page-1">
        <mxGraphModel dx="530" dy="302" grid="1" gridSize="10" guides="1" tooltips="1" connect="1" arrows="1" fold="1" page="1" pageScale="1" pageWidth="850" pageHeight="1100" math="0" shadow="0">
            <root>
                <mxCell id="0"/>
                <mxCell id="1" parent="0"/>
                <mxCell id="5" value="" style="triangle;whiteSpace=wrap;html=1;strokeColor=default;strokeWidth=0;fillColor=#FFFFFF;" vertex="1" parent="1">
                    <mxGeometry x="390" y="350" width="60" height="80" as="geometry"/>
                </mxCell>
                <mxCell id="6" value="" style="triangle;whiteSpace=wrap;html=1;strokeColor=default;strokeWidth=0;fillColor=#FFFFFF;" vertex="1" parent="1">
                    <mxGeometry x="440" y="350" width="60" height="80" as="geometry"/>
                </mxCell>
            </root>
        </mxGraphModel>
    </diagram>
</mxfile>